<!-- Generated by IcoMoon.io -->
<svg version="1.1" xmlns="http://www.w3.org/2000/svg" width="20" height="20" viewBox="0 0 20 20">
<title>world</title>
<path fill="#828282" d="M10 1.667c-4.143 0-7.5 3.357-7.5 7.5s3.357 7.5 7.5 7.5 7.5-3.357 7.5-7.5-3.357-7.5-7.5-7.5zM11.667 3.333c0 0.833-0.417 1.667-1.25 1.667s-1.25 0.833-1.25 1.667 0 2.5 0 2.5 0.833 0 0.833-2.5c0-0.461 0.373-0.833 0.833-0.833s0.833 0.372 0.833 0.833v2.5c-0.46 0-0.833 0.373-0.833 0.833s0.373 0.833 0.833 0.833c0.461 0 0.833-0.373 0.833-0.833h0.833v-1.667l0.833 0.833-0.833 0.833c0 2.5 0 2.5-1.667 3.333 0-0.833-0.833-0.833-2.5-0.833v-1.667l-1.667-1.667v-1.667c-0.833 0-0.833 0.833-0.833 0.833l-2.459-2.459c0.092-0.16 0.188-0.318 0.292-0.47l0.436-0.565c1.223-1.43 3.037-2.339 5.065-2.339 0.576 0 1.133 0.082 1.667 0.218v0.615z"></path>
</svg>
