<?xml version="1.0" encoding="utf-8"?>
<!-- Generated by IcoMoon.io -->
<svg version="1.1" xmlns="http://www.w3.org/2000/svg" xmlns:xlink="http://www.w3.org/1999/xlink" width="560" height="56" viewBox="0 0 560 56">
<svg id="icon-minus" width="20" height="20" viewBox="0 0 20 20" x="0" y="0">
<path d="M4.167 10.833h11.667c0.46 0 0.833-0.373 0.833-0.833s-0.373-0.833-0.833-0.833h-11.667c-0.46 0-0.833 0.373-0.833 0.833s0.373 0.833 0.833 0.833z"></path>
</svg>
<svg id="icon-person_outline" width="20" height="20" viewBox="0 0 20 20" x="36" y="0">
<path d="M10 10.82q1.25 0 2.734 0.352t2.715 1.172 1.23 1.836v2.5h-13.359v-2.5q0-1.016 1.23-1.836t2.715-1.172 2.734-0.352zM10 3.32q1.367 0 2.344 0.996t0.977 2.363-0.977 2.344-2.344 0.977-2.344-0.977-0.977-2.344 0.977-2.363 2.344-0.996zM10 12.422q-1.719 0-3.398 0.645t-1.68 1.113v0.898h10.156v-0.898q0-0.469-1.68-1.113t-3.398-0.645zM10 4.922q-0.742 0-1.25 0.508t-0.508 1.25 0.508 1.23 1.25 0.488 1.25-0.488 0.508-1.23-0.508-1.25-1.25-0.508z"></path>
</svg>
<svg id="icon-call" width="20" height="20" viewBox="0 0 20 20" x="72" y="0">
<path d="M16.68 12.813q0.352 0 0.586 0.234t0.234 0.586v2.891q0 0.977-0.82 0.977-5.82 0-10-4.18t-4.18-10q0-0.82 0.977-0.82h2.891q0.352 0 0.586 0.234t0.234 0.586q0 1.523 0.469 2.93 0.156 0.508-0.195 0.859l-1.602 1.406q1.797 3.75 5.742 5.664l1.289-1.641q0.234-0.234 0.586-0.234 0.195 0 0.273 0.039 1.406 0.469 2.93 0.469z"></path>
</svg>
<svg id="icon-add" width="20" height="20" viewBox="0 0 20 20" x="108" y="0">
<path d="M15.82 10.82h-5v5h-1.641v-5h-5v-1.641h5v-5h1.641v5h5v1.641z"></path>
</svg>
<svg id="icon-home" width="20" height="20" viewBox="0 0 20 20" x="144" y="0">
<path d="M8.32 16.68h-4.141v-6.68h-2.5l8.32-7.5 8.32 7.5h-2.5v6.68h-4.141v-5h-3.359v5z"></path>
</svg>
<svg id="icon-location_city" width="20" height="20" viewBox="0 0 20 20" x="180" y="0">
<path d="M15.82 12.5v-1.68h-1.641v1.68h1.641zM15.82 15.82v-1.641h-1.641v1.641h1.641zM10.82 5.82v-1.641h-1.641v1.641h1.641zM10.82 9.18v-1.68h-1.641v1.68h1.641zM10.82 12.5v-1.68h-1.641v1.68h1.641zM10.82 15.82v-1.641h-1.641v1.641h1.641zM5.82 9.18v-1.68h-1.641v1.68h1.641zM5.82 12.5v-1.68h-1.641v1.68h1.641zM5.82 15.82v-1.641h-1.641v1.641h1.641zM12.5 9.18h5v8.32h-15v-11.68h5v-1.641l2.5-2.5 2.5 2.5v5z"></path>
</svg>
<svg id="icon-markunread_mailbox" width="20" height="20" viewBox="0 0 20 20" x="216" y="0">
<path d="M16.68 5q0.664 0 1.152 0.508t0.488 1.172v10q0 0.664-0.488 1.152t-1.152 0.488h-13.359q-0.664 0-1.152-0.488t-0.488-1.152v-10q0-0.664 0.488-1.172t1.152-0.508h1.68v-5h6.68v3.32h-5v6.68h1.641v-5h8.359z"></path>
</svg>
<svg id="icon-world" width="20" height="20" viewBox="0 0 20 20" x="252" y="0">
<path d="M10 1.667c-4.143 0-7.5 3.357-7.5 7.5s3.357 7.5 7.5 7.5 7.5-3.357 7.5-7.5-3.357-7.5-7.5-7.5zM11.667 3.333c0 0.833-0.417 1.667-1.25 1.667s-1.25 0.833-1.25 1.667 0 2.5 0 2.5 0.833 0 0.833-2.5c0-0.461 0.373-0.833 0.833-0.833s0.833 0.372 0.833 0.833v2.5c-0.46 0-0.833 0.373-0.833 0.833s0.373 0.833 0.833 0.833c0.461 0 0.833-0.373 0.833-0.833h0.833v-1.667l0.833 0.833-0.833 0.833c0 2.5 0 2.5-1.667 3.333 0-0.833-0.833-0.833-2.5-0.833v-1.667l-1.667-1.667v-1.667c-0.833 0-0.833 0.833-0.833 0.833l-2.459-2.459c0.092-0.16 0.188-0.318 0.292-0.47l0.436-0.565c1.223-1.43 3.037-2.339 5.065-2.339 0.576 0 1.133 0.082 1.667 0.218v0.615z"></path>
</svg>
<svg id="icon-user-circle" width="20" height="20" viewBox="0 0 20 20" x="0" y="36">
<path d="M16.998 14.944c-0.29-2.087-1.138-3.94-3.036-4.196-0.982 1.071-2.4 1.752-3.962 1.752s-2.98-0.681-3.962-1.752c-1.897 0.257-2.746 2.109-3.036 4.196 1.551 2.188 4.107 3.627 6.998 3.627s5.446-1.44 6.998-3.627zM14.286 7.143c0-2.366-1.92-4.286-4.286-4.286s-4.286 1.92-4.286 4.286 1.92 4.286 4.286 4.286 4.286-1.92 4.286-4.286zM20 10c0 5.502-4.464 10-10 10-5.525 0-10-4.487-10-10 0-5.525 4.475-10 10-10s10 4.475 10 10z"></path>
</svg>
</svg>
